<svg width="300" height="300" viewBox="0 0 300 300" fill="none" xmlns="http://www.w3.org/2000/svg">
<rect width="300" height="300" rx="150" fill="white"/>
<path d="M98.4404 102.3C100.94 102.3 102.19 103.65 102.19 106.35C102.19 108.95 100.94 110.25 98.4404 110.25H94.3904V194.55C94.3904 197.25 93.0404 198.6 90.3404 198.6C87.9404 198.6 86.2904 197.65 85.3904 195.75L45.1904 118.8V190.2H48.6404C51.0404 190.2 52.2404 191.5 52.2404 194.1C52.2404 196.7 51.0404 198 48.6404 198H33.7904C31.3904 198 30.1904 196.7 30.1904 194.1C30.1904 191.5 31.3904 190.2 33.7904 190.2H37.3904V110.25H33.7904C31.3904 110.25 30.1904 108.95 30.1904 106.35C30.1904 103.65 31.3904 102.3 33.7904 102.3H43.8404C45.3404 102.3 46.4904 103.1 47.2904 104.7L86.5904 179.85V110.25H82.6904C80.2904 110.25 79.0904 108.95 79.0904 106.35C79.0904 103.65 80.2904 102.3 82.6904 102.3H98.4404ZM152.031 133.8H148.731C146.431 133.8 145.281 132.5 145.281 129.9C145.281 127.3 146.431 126 148.731 126H163.131C164.131 126 164.931 126.4 165.531 127.2C166.231 127.9 166.581 128.8 166.581 129.9C166.581 131 166.231 131.95 165.531 132.75C164.931 133.45 164.131 133.8 163.131 133.8H160.131V190.8C165.031 190.8 169.981 188.1 174.981 182.7C179.981 177.2 183.981 170.55 186.981 162.75C189.981 154.85 191.481 147.45 191.481 140.55C191.481 136.75 190.981 134.75 189.981 134.55C188.781 134.85 187.831 135 187.131 135C185.131 135 183.331 134.1 181.731 132.3C180.231 130.5 179.481 128.7 179.481 126.9C179.481 122.7 181.531 120.6 185.631 120.6C189.131 120.6 192.131 122.25 194.631 125.55C197.231 128.85 198.531 134.3 198.531 141.9C198.531 149.5 196.681 157.85 192.981 166.95C189.281 175.95 184.131 183.65 177.531 190.05C170.931 196.35 164.031 199.5 156.831 199.5C153.631 199.5 152.031 198.05 152.031 195.15V177.75C149.531 183.75 145.231 188.9 139.131 193.2C133.131 197.4 127.581 199.5 122.481 199.5C119.181 199.5 117.531 198.15 117.531 195.45V133.8H113.181C110.881 133.8 109.731 132.5 109.731 129.9C109.731 127.3 110.881 126 113.181 126H128.481C129.481 126 130.381 126.4 131.181 127.2C131.981 128 132.381 128.9 132.381 129.9C132.381 130.9 131.981 131.8 131.181 132.6C130.381 133.4 129.481 133.8 128.481 133.8H125.781V190.8C131.181 190.8 136.881 187.05 142.881 179.55C148.981 171.95 152.031 164.05 152.031 155.85V133.8ZM258.824 193.35C258.824 190.85 259.624 188.6 261.224 186.6C262.824 184.6 264.474 183.6 266.174 183.6C269.574 183.6 271.274 185.35 271.274 188.85C271.274 191.65 270.074 194.15 267.674 196.35C265.374 198.45 262.474 199.5 258.974 199.5C251.674 199.5 245.624 194.9 240.824 185.7C238.824 181.8 237.074 179 235.574 177.3C232.974 174.5 229.624 173.1 225.524 173.1C221.524 173.1 219.524 173.45 219.524 174.15V190.2H223.574C225.974 190.2 227.174 191.5 227.174 194.1C227.174 196.7 225.974 198 223.574 198H207.374C204.974 198 203.774 196.7 203.774 194.1C203.774 191.5 204.974 190.2 207.374 190.2H210.974V110.25H207.374C204.974 110.25 203.774 108.95 203.774 106.35C203.774 103.65 204.974 102.3 207.374 102.3H222.824C236.524 102.3 247.624 105.3 256.124 111.3C264.624 117.3 268.874 125.8 268.874 136.8C268.874 146.1 266.024 154.05 260.324 160.65C254.724 167.15 247.424 170.75 238.424 171.45C244.324 173.15 248.324 177 250.424 183C251.724 186.7 252.874 189.3 253.874 190.8C254.974 192.2 256.624 193.05 258.824 193.35ZM231.974 165.75C240.374 165.75 247.274 163.15 252.674 157.95C258.074 152.65 260.774 145.6 260.774 136.8C260.774 128 257.374 121.2 250.574 116.4C243.774 111.5 235.574 109.05 225.974 109.05C221.674 109.05 219.524 109.7 219.524 111V164.1C219.524 165.2 223.674 165.75 231.974 165.75Z" fill="black"/>
<path d="M94.3904 110.25V109.25H93.3904V110.25H94.3904ZM85.3904 195.75L86.2942 195.322L86.2858 195.304L86.2768 195.287L85.3904 195.75ZM45.1904 118.8L46.0768 118.337L44.1904 118.8H45.1904ZM45.1904 190.2H44.1904V191.2H45.1904V190.2ZM37.3904 190.2V191.2H38.3904V190.2H37.3904ZM37.3904 110.25H38.3904V109.25H37.3904V110.25ZM47.2904 104.7L46.396 105.147L46.4001 105.155L46.4043 105.163L47.2904 104.7ZM86.5904 179.85L85.7043 180.313L87.5904 179.85H86.5904ZM86.5904 110.25H87.5904V109.25H86.5904V110.25ZM98.4404 103.3C99.5157 103.3 100.144 103.587 100.519 103.992C100.908 104.412 101.19 105.136 101.19 106.35H103.19C103.19 104.864 102.848 103.563 101.987 102.633C101.112 101.688 99.8652 101.3 98.4404 101.3V103.3ZM101.19 106.35C101.19 107.505 100.912 108.187 100.532 108.582C100.159 108.97 99.5261 109.25 98.4404 109.25V111.25C99.8548 111.25 101.097 110.88 101.974 109.968C102.844 109.063 103.19 107.795 103.19 106.35H101.19ZM98.4404 109.25H94.3904V111.25H98.4404V109.25ZM93.3904 110.25V194.55H95.3904V110.25H93.3904ZM93.3904 194.55C93.3904 195.746 93.0921 196.459 92.6708 196.88C92.2495 197.302 91.5363 197.6 90.3404 197.6V199.6C91.8446 199.6 93.1564 199.223 94.085 198.295C95.0137 197.366 95.3904 196.054 95.3904 194.55H93.3904ZM90.3404 197.6C89.2706 197.6 88.4404 197.389 87.8019 197.021C87.1716 196.658 86.6665 196.108 86.2942 195.322L84.4867 196.178C85.0143 197.292 85.7843 198.167 86.804 198.754C87.8155 199.336 89.0103 199.6 90.3404 199.6V197.6ZM86.2768 195.287L46.0768 118.337L44.3041 119.263L84.5041 196.213L86.2768 195.287ZM44.1904 118.8V190.2H46.1904V118.8H44.1904ZM45.1904 191.2H48.6404V189.2H45.1904V191.2ZM48.6404 191.2C49.6648 191.2 50.2553 191.474 50.6056 191.853C50.97 192.248 51.2404 192.935 51.2404 194.1H53.2404C53.2404 192.665 52.9109 191.402 52.0752 190.497C51.2256 189.576 50.016 189.2 48.6404 189.2V191.2ZM51.2404 194.1C51.2404 195.265 50.97 195.952 50.6056 196.347C50.2553 196.726 49.6648 197 48.6404 197V199C50.016 199 51.2256 198.624 52.0752 197.703C52.9109 196.798 53.2404 195.535 53.2404 194.1H51.2404ZM48.6404 197H33.7904V199H48.6404V197ZM33.7904 197C32.766 197 32.1756 196.726 31.8252 196.347C31.4609 195.952 31.1904 195.265 31.1904 194.1H29.1904C29.1904 195.535 29.52 196.798 30.3556 197.703C31.2053 198.624 32.4148 199 33.7904 199V197ZM31.1904 194.1C31.1904 192.935 31.4609 192.248 31.8252 191.853C32.1756 191.474 32.766 191.2 33.7904 191.2V189.2C32.4148 189.2 31.2053 189.576 30.3556 190.497C29.52 191.402 29.1904 192.665 29.1904 194.1H31.1904ZM33.7904 191.2H37.3904V189.2H33.7904V191.2ZM38.3904 190.2V110.25H36.3904V190.2H38.3904ZM37.3904 109.25H33.7904V111.25H37.3904V109.25ZM33.7904 109.25C32.766 109.25 32.1756 108.976 31.8252 108.597C31.4609 108.202 31.1904 107.515 31.1904 106.35H29.1904C29.1904 107.785 29.52 109.048 30.3556 109.953C31.2053 110.874 32.4148 111.25 33.7904 111.25V109.25ZM31.1904 106.35C31.1904 105.127 31.4648 104.397 31.8378 103.977C32.191 103.58 32.7771 103.3 33.7904 103.3V101.3C32.4038 101.3 31.1899 101.695 30.343 102.648C29.5161 103.578 29.1904 104.873 29.1904 106.35H31.1904ZM33.7904 103.3H43.8404V101.3H33.7904V103.3ZM43.8404 103.3C44.4015 103.3 44.8616 103.446 45.2569 103.721C45.6616 104.002 46.0506 104.456 46.396 105.147L48.1849 104.253C47.7303 103.344 47.1442 102.598 46.399 102.079C45.6443 101.554 44.7794 101.3 43.8404 101.3V103.3ZM46.4043 105.163L85.7043 180.313L87.4766 179.387L48.1766 104.237L46.4043 105.163ZM87.5904 179.85V110.25H85.5904V179.85H87.5904ZM86.5904 109.25H82.6904V111.25H86.5904V109.25ZM82.6904 109.25C81.666 109.25 81.0756 108.976 80.7252 108.597C80.3609 108.202 80.0904 107.515 80.0904 106.35H78.0904C78.0904 107.785 78.42 109.048 79.2556 109.953C80.1053 110.874 81.3148 111.25 82.6904 111.25V109.25ZM80.0904 106.35C80.0904 105.127 80.3648 104.397 80.7378 103.977C81.091 103.58 81.6771 103.3 82.6904 103.3V101.3C81.3038 101.3 80.0899 101.695 79.243 102.648C78.4161 103.578 78.0904 104.873 78.0904 106.35H80.0904ZM82.6904 103.3H98.4404V101.3H82.6904V103.3ZM152.031 133.8H153.031V132.8H152.031V133.8ZM165.531 127.2L164.731 127.8L164.774 127.857L164.824 127.907L165.531 127.2ZM165.531 132.75L164.779 132.091L164.772 132.099L165.531 132.75ZM160.131 133.8V132.8H159.131V133.8H160.131ZM160.131 190.8H159.131V191.8H160.131V190.8ZM174.981 182.7L175.715 183.379L175.721 183.373L174.981 182.7ZM186.981 162.75L187.915 163.109L187.916 163.105L186.981 162.75ZM189.981 134.55L190.178 133.569L189.957 133.525L189.739 133.58L189.981 134.55ZM181.731 132.3L180.963 132.94L180.973 132.952L180.984 132.964L181.731 132.3ZM194.631 125.55L193.834 126.154L193.84 126.161L193.846 126.169L194.631 125.55ZM192.981 166.95L193.906 167.33L193.908 167.327L192.981 166.95ZM177.531 190.05L178.222 190.773L178.228 190.768L177.531 190.05ZM152.031 177.75H153.031L151.108 177.365L152.031 177.75ZM139.131 193.2L139.705 194.019L139.708 194.017L139.131 193.2ZM117.531 133.8H118.531V132.8H117.531V133.8ZM131.181 127.2L131.889 126.493L131.889 126.493L131.181 127.2ZM131.181 132.6L131.889 133.307L131.889 133.307L131.181 132.6ZM125.781 133.8V132.8H124.781V133.8H125.781ZM125.781 190.8H124.781V191.8H125.781V190.8ZM142.881 179.55L142.102 178.924L142.101 178.925L142.881 179.55ZM152.031 132.8H148.731V134.8H152.031V132.8ZM148.731 132.8C147.77 132.8 147.221 132.534 146.893 132.162C146.544 131.768 146.281 131.074 146.281 129.9H144.281C144.281 131.326 144.594 132.582 145.395 133.488C146.216 134.416 147.393 134.8 148.731 134.8V132.8ZM146.281 129.9C146.281 128.726 146.544 128.032 146.893 127.638C147.221 127.266 147.77 127 148.731 127V125C147.393 125 146.216 125.384 145.395 126.312C144.594 127.218 144.281 128.474 144.281 129.9H146.281ZM148.731 127H163.131V125H148.731V127ZM163.131 127C163.817 127 164.32 127.252 164.731 127.8L166.331 126.6C165.543 125.548 164.446 125 163.131 125V127ZM164.824 127.907C165.315 128.398 165.581 129.033 165.581 129.9H167.581C167.581 128.567 167.148 127.402 166.239 126.493L164.824 127.907ZM165.581 129.9C165.581 130.767 165.313 131.481 164.779 132.091L166.284 133.409C167.15 132.419 167.581 131.233 167.581 129.9H165.581ZM164.772 132.099C164.38 132.557 163.867 132.8 163.131 132.8V134.8C164.395 134.8 165.483 134.343 166.291 133.401L164.772 132.099ZM163.131 132.8H160.131V134.8H163.131V132.8ZM159.131 133.8V190.8H161.131V133.8H159.131ZM160.131 191.8C165.424 191.8 170.621 188.881 175.715 183.379L174.248 182.021C169.342 187.319 164.639 189.8 160.131 189.8V191.8ZM175.721 183.373C180.814 177.77 184.876 171.01 187.915 163.109L186.048 162.391C183.087 170.09 179.148 176.63 174.242 182.027L175.721 183.373ZM187.916 163.105C190.95 155.116 192.481 147.595 192.481 140.55H190.481C190.481 147.305 189.013 154.584 186.047 162.395L187.916 163.105ZM192.481 140.55C192.481 138.625 192.357 137.077 192.077 135.957C191.937 135.399 191.744 134.885 191.464 134.474C191.176 134.052 190.755 133.685 190.178 133.569L189.785 135.531C189.708 135.515 189.725 135.473 189.811 135.601C189.906 135.74 190.026 136.001 190.136 136.443C190.356 137.323 190.481 138.675 190.481 140.55H192.481ZM189.739 133.58C188.568 133.873 187.71 134 187.131 134V136C187.953 136 188.995 135.827 190.224 135.52L189.739 133.58ZM187.131 134C185.475 134 183.931 133.27 182.479 131.636L180.984 132.964C182.732 134.93 184.788 136 187.131 136V134ZM182.5 131.66C181.104 129.985 180.481 128.403 180.481 126.9H178.481C178.481 128.997 179.359 131.015 180.963 132.94L182.5 131.66ZM180.481 126.9C180.481 124.948 180.958 123.669 181.735 122.874C182.507 122.082 183.742 121.6 185.631 121.6V119.6C183.421 119.6 181.581 120.168 180.303 121.476C179.03 122.781 178.481 124.652 178.481 126.9H180.481ZM185.631 121.6C188.759 121.6 191.484 123.052 193.834 126.154L195.429 124.946C192.778 121.448 189.504 119.6 185.631 119.6V121.6ZM193.846 126.169C196.233 129.198 197.531 134.364 197.531 141.9H199.531C199.531 134.236 198.23 128.502 195.417 124.931L193.846 126.169ZM197.531 141.9C197.531 149.339 195.72 157.56 192.055 166.573L193.908 167.327C197.643 158.14 199.531 149.661 199.531 141.9H197.531ZM192.057 166.57C188.406 175.45 183.331 183.033 176.835 189.332L178.228 190.768C184.932 184.267 190.157 176.45 193.906 167.33L192.057 166.57ZM176.841 189.327C170.375 195.499 163.711 198.5 156.831 198.5V200.5C164.352 200.5 171.488 197.201 178.222 190.773L176.841 189.327ZM156.831 198.5C155.363 198.5 154.448 198.165 153.903 197.672C153.377 197.195 153.031 196.419 153.031 195.15H151.031C151.031 196.781 151.486 198.18 152.56 199.153C153.615 200.11 155.1 200.5 156.831 200.5V198.5ZM153.031 195.15V177.75H151.031V195.15H153.031ZM151.108 177.365C148.691 183.167 144.525 188.175 138.555 192.383L139.708 194.017C145.938 189.625 150.372 184.333 152.955 178.135L151.108 177.365ZM138.558 192.381C132.656 196.512 127.305 198.5 122.481 198.5V200.5C127.858 200.5 133.607 198.288 139.705 194.019L138.558 192.381ZM122.481 198.5C120.942 198.5 119.974 198.181 119.402 197.714C118.869 197.277 118.531 196.587 118.531 195.45H116.531C116.531 197.013 117.019 198.348 118.136 199.261C119.214 200.144 120.721 200.5 122.481 200.5V198.5ZM118.531 195.45V133.8H116.531V195.45H118.531ZM117.531 132.8H113.181V134.8H117.531V132.8ZM113.181 132.8C112.22 132.8 111.671 132.534 111.343 132.162C110.994 131.768 110.731 131.074 110.731 129.9H108.731C108.731 131.326 109.044 132.582 109.845 133.488C110.666 134.416 111.843 134.8 113.181 134.8V132.8ZM110.731 129.9C110.731 128.726 110.994 128.032 111.343 127.638C111.671 127.266 112.22 127 113.181 127V125C111.843 125 110.666 125.384 109.845 126.312C109.044 127.218 108.731 128.474 108.731 129.9H110.731ZM113.181 127H128.481V125H113.181V127ZM128.481 127C129.181 127 129.835 127.268 130.474 127.907L131.889 126.493C130.928 125.532 129.782 125 128.481 125V127ZM130.474 127.907C131.114 128.546 131.381 129.201 131.381 129.9H133.381C133.381 128.599 132.849 127.454 131.889 126.493L130.474 127.907ZM131.381 129.9C131.381 130.599 131.114 131.254 130.474 131.893L131.889 133.307C132.849 132.346 133.381 131.201 133.381 129.9H131.381ZM130.474 131.893C129.835 132.532 129.181 132.8 128.481 132.8V134.8C129.782 134.8 130.928 134.268 131.889 133.307L130.474 131.893ZM128.481 132.8H125.781V134.8H128.481V132.8ZM124.781 133.8V190.8H126.781V133.8H124.781ZM125.781 191.8C131.655 191.8 137.613 187.736 143.662 180.175L142.101 178.925C136.15 186.364 130.708 189.8 125.781 189.8V191.8ZM143.661 180.176C149.876 172.433 153.031 164.319 153.031 155.85H151.031C151.031 163.781 148.087 171.467 142.102 178.924L143.661 180.176ZM153.031 155.85V133.8H151.031V155.85H153.031ZM258.824 193.35L258.689 194.341L259.824 194.496V193.35H258.824ZM261.224 186.6L260.444 185.975L260.444 185.975L261.224 186.6ZM267.674 196.35L268.349 197.088L268.35 197.087L267.674 196.35ZM240.824 185.7L239.935 186.156L239.938 186.163L240.824 185.7ZM235.574 177.3L236.324 176.638L236.316 176.629L236.307 176.62L235.574 177.3ZM219.524 190.2H218.524V191.2H219.524V190.2ZM210.974 190.2V191.2H211.974V190.2H210.974ZM210.974 110.25H211.974V109.25H210.974V110.25ZM260.324 160.65L259.568 159.996L259.567 159.997L260.324 160.65ZM238.424 171.45L238.347 170.453L238.148 172.411L238.424 171.45ZM250.424 183L249.481 183.33L249.481 183.331L250.424 183ZM253.874 190.8L253.042 191.355L253.064 191.387L253.088 191.418L253.874 190.8ZM252.674 157.95L253.368 158.67L253.375 158.664L252.674 157.95ZM250.574 116.4L249.99 117.211L249.998 117.217L250.574 116.4ZM259.824 193.35C259.824 191.083 260.543 189.052 262.005 187.225L260.444 185.975C258.705 188.148 257.824 190.617 257.824 193.35H259.824ZM262.005 187.225C263.514 185.339 264.907 184.6 266.174 184.6V182.6C264.042 182.6 262.135 183.861 260.444 185.975L262.005 187.225ZM266.174 184.6C267.713 184.6 268.685 184.994 269.282 185.609C269.885 186.23 270.274 187.247 270.274 188.85H272.274C272.274 186.953 271.814 185.345 270.717 184.216C269.614 183.081 268.036 182.6 266.174 182.6V184.6ZM270.274 188.85C270.274 191.323 269.229 193.568 266.999 195.613L268.35 197.087C270.92 194.732 272.274 191.977 272.274 188.85H270.274ZM267 195.612C264.908 197.522 262.258 198.5 258.974 198.5V200.5C262.691 200.5 265.841 199.378 268.349 197.088L267 195.612ZM258.974 198.5C252.196 198.5 246.421 194.265 241.711 185.237L239.938 186.163C244.828 195.535 251.152 200.5 258.974 200.5V198.5ZM241.714 185.244C239.705 181.325 237.909 178.434 236.324 176.638L234.825 177.962C236.24 179.566 237.944 182.275 239.935 186.156L241.714 185.244ZM236.307 176.62C233.503 173.6 229.88 172.1 225.524 172.1V174.1C229.369 174.1 232.446 175.4 234.842 177.98L236.307 176.62ZM225.524 172.1C223.511 172.1 221.94 172.187 220.852 172.377C220.318 172.471 219.822 172.602 219.435 172.805C219.072 172.996 218.524 173.41 218.524 174.15H220.524C220.524 174.54 220.227 174.648 220.364 174.576C220.477 174.517 220.731 174.429 221.197 174.348C222.109 174.188 223.538 174.1 225.524 174.1V172.1ZM218.524 174.15V190.2H220.524V174.15H218.524ZM219.524 191.2H223.574V189.2H219.524V191.2ZM223.574 191.2C224.599 191.2 225.189 191.474 225.54 191.853C225.904 192.248 226.174 192.935 226.174 194.1H228.174C228.174 192.665 227.845 191.402 227.009 190.497C226.16 189.576 224.95 189.2 223.574 189.2V191.2ZM226.174 194.1C226.174 195.265 225.904 195.952 225.54 196.347C225.189 196.726 224.599 197 223.574 197V199C224.95 199 226.16 198.624 227.009 197.703C227.845 196.798 228.174 195.535 228.174 194.1H226.174ZM223.574 197H207.374V199H223.574V197ZM207.374 197C206.35 197 205.76 196.726 205.409 196.347C205.045 195.952 204.774 195.265 204.774 194.1H202.774C202.774 195.535 203.104 196.798 203.94 197.703C204.789 198.624 205.999 199 207.374 199V197ZM204.774 194.1C204.774 192.935 205.045 192.248 205.409 191.853C205.76 191.474 206.35 191.2 207.374 191.2V189.2C205.999 189.2 204.789 189.576 203.94 190.497C203.104 191.402 202.774 192.665 202.774 194.1H204.774ZM207.374 191.2H210.974V189.2H207.374V191.2ZM211.974 190.2V110.25H209.974V190.2H211.974ZM210.974 109.25H207.374V111.25H210.974V109.25ZM207.374 109.25C206.35 109.25 205.76 108.976 205.409 108.597C205.045 108.202 204.774 107.515 204.774 106.35H202.774C202.774 107.785 203.104 109.048 203.94 109.953C204.789 110.874 205.999 111.25 207.374 111.25V109.25ZM204.774 106.35C204.774 105.127 205.049 104.397 205.422 103.977C205.775 103.58 206.361 103.3 207.374 103.3V101.3C205.988 101.3 204.774 101.695 203.927 102.648C203.1 103.578 202.774 104.873 202.774 106.35H204.774ZM207.374 103.3H222.824V101.3H207.374V103.3ZM222.824 103.3C236.383 103.3 247.263 106.269 255.548 112.117L256.701 110.483C247.986 104.331 236.666 101.3 222.824 101.3V103.3ZM255.548 112.117C263.765 117.917 267.874 126.103 267.874 136.8H269.874C269.874 125.497 265.484 116.683 256.701 110.483L255.548 112.117ZM267.874 136.8C267.874 145.877 265.1 153.591 259.568 159.996L261.081 161.304C266.949 154.509 269.874 146.323 269.874 136.8H267.874ZM259.567 159.997C254.149 166.286 247.099 169.772 238.347 170.453L238.502 172.447C247.75 171.728 255.3 168.014 261.082 161.303L259.567 159.997ZM238.148 172.411C243.723 174.018 247.483 177.623 249.481 183.33L251.368 182.67C249.166 176.377 244.925 172.282 238.701 170.489L238.148 172.411ZM249.481 183.331C250.784 187.04 251.968 189.743 253.042 191.355L254.706 190.245C253.781 188.857 252.665 186.36 251.368 182.669L249.481 183.331ZM253.088 191.418C254.386 193.07 256.299 194.015 258.689 194.341L258.96 192.359C256.95 192.085 255.563 191.33 254.661 190.182L253.088 191.418ZM231.974 166.75C240.599 166.75 247.759 164.072 253.368 158.67L251.981 157.23C246.79 162.228 240.15 164.75 231.974 164.75V166.75ZM253.375 158.664C258.998 153.145 261.774 145.821 261.774 136.8H259.774C259.774 145.379 257.151 152.155 251.974 157.236L253.375 158.664ZM261.774 136.8C261.774 127.697 258.234 120.583 251.151 115.583L249.998 117.217C256.515 121.817 259.774 128.303 259.774 136.8H261.774ZM251.159 115.589C244.165 110.549 235.753 108.05 225.974 108.05V110.05C235.396 110.05 243.384 112.451 249.99 117.211L251.159 115.589ZM225.974 108.05C223.799 108.05 222.067 108.212 220.848 108.58C220.238 108.765 219.678 109.023 219.256 109.406C218.805 109.815 218.524 110.358 218.524 111H220.524C220.524 110.992 220.513 110.966 220.599 110.888C220.715 110.783 220.961 110.635 221.426 110.495C222.357 110.213 223.85 110.05 225.974 110.05V108.05ZM218.524 111V164.1H220.524V111H218.524ZM218.524 164.1C218.524 164.59 218.767 164.968 219.039 165.22C219.296 165.458 219.618 165.626 219.933 165.751C220.568 166.004 221.444 166.188 222.506 166.329C224.648 166.613 227.814 166.75 231.974 166.75V164.75C227.835 164.75 224.776 164.612 222.768 164.346C221.755 164.212 221.074 164.053 220.672 163.893C220.576 163.855 220.508 163.821 220.46 163.794C220.412 163.766 220.396 163.751 220.399 163.754C220.411 163.765 220.524 163.885 220.524 164.1H218.524Z" fill="black"/>
</svg>
