<svg width="300" height="300" viewBox="0 0 300 300" fill="none" xmlns="http://www.w3.org/2000/svg">
<rect width="300" height="300" rx="50" fill="black"/>
<path d="M98 102.3C100.5 102.3 101.75 103.65 101.75 106.35C101.75 108.95 100.5 110.25 98 110.25H93.95V194.55C93.95 197.25 92.6 198.6 89.9 198.6C87.5 198.6 85.85 197.65 84.95 195.75L44.75 118.8V190.2H48.2C50.6 190.2 51.8 191.5 51.8 194.1C51.8 196.7 50.6 198 48.2 198H33.35C30.95 198 29.75 196.7 29.75 194.1C29.75 191.5 30.95 190.2 33.35 190.2H36.95V110.25H33.35C30.95 110.25 29.75 108.95 29.75 106.35C29.75 103.65 30.95 102.3 33.35 102.3H43.4C44.9 102.3 46.05 103.1 46.85 104.7L86.15 179.85V110.25H82.25C79.85 110.25 78.65 108.95 78.65 106.35C78.65 103.65 79.85 102.3 82.25 102.3H98ZM151.591 133.8H148.291C145.991 133.8 144.841 132.5 144.841 129.9C144.841 127.3 145.991 126 148.291 126H162.691C163.691 126 164.491 126.4 165.091 127.2C165.791 127.9 166.141 128.8 166.141 129.9C166.141 131 165.791 131.95 165.091 132.75C164.491 133.45 163.691 133.8 162.691 133.8H159.691V190.8C164.591 190.8 169.541 188.1 174.541 182.7C179.541 177.2 183.541 170.55 186.541 162.75C189.541 154.85 191.041 147.45 191.041 140.55C191.041 136.75 190.541 134.75 189.541 134.55C188.341 134.85 187.391 135 186.691 135C184.691 135 182.891 134.1 181.291 132.3C179.791 130.5 179.041 128.7 179.041 126.9C179.041 122.7 181.091 120.6 185.191 120.6C188.691 120.6 191.691 122.25 194.191 125.55C196.791 128.85 198.091 134.3 198.091 141.9C198.091 149.5 196.241 157.85 192.541 166.95C188.841 175.95 183.691 183.65 177.091 190.05C170.491 196.35 163.591 199.5 156.391 199.5C153.191 199.5 151.591 198.05 151.591 195.15V177.75C149.091 183.75 144.791 188.9 138.691 193.2C132.691 197.4 127.141 199.5 122.041 199.5C118.741 199.5 117.091 198.15 117.091 195.45V133.8H112.741C110.441 133.8 109.291 132.5 109.291 129.9C109.291 127.3 110.441 126 112.741 126H128.041C129.041 126 129.941 126.4 130.741 127.2C131.541 128 131.941 128.9 131.941 129.9C131.941 130.9 131.541 131.8 130.741 132.6C129.941 133.4 129.041 133.8 128.041 133.8H125.341V190.8C130.741 190.8 136.441 187.05 142.441 179.55C148.541 171.95 151.591 164.05 151.591 155.85V133.8ZM258.384 193.35C258.384 190.85 259.184 188.6 260.784 186.6C262.384 184.6 264.034 183.6 265.734 183.6C269.134 183.6 270.834 185.35 270.834 188.85C270.834 191.65 269.634 194.15 267.234 196.35C264.934 198.45 262.034 199.5 258.534 199.5C251.234 199.5 245.184 194.9 240.384 185.7C238.384 181.8 236.634 179 235.134 177.3C232.534 174.5 229.184 173.1 225.084 173.1C221.084 173.1 219.084 173.45 219.084 174.15V190.2H223.134C225.534 190.2 226.734 191.5 226.734 194.1C226.734 196.7 225.534 198 223.134 198H206.934C204.534 198 203.334 196.7 203.334 194.1C203.334 191.5 204.534 190.2 206.934 190.2H210.534V110.25H206.934C204.534 110.25 203.334 108.95 203.334 106.35C203.334 103.65 204.534 102.3 206.934 102.3H222.384C236.084 102.3 247.184 105.3 255.684 111.3C264.184 117.3 268.434 125.8 268.434 136.8C268.434 146.1 265.584 154.05 259.884 160.65C254.284 167.15 246.984 170.75 237.984 171.45C243.884 173.15 247.884 177 249.984 183C251.284 186.7 252.434 189.3 253.434 190.8C254.534 192.2 256.184 193.05 258.384 193.35ZM231.534 165.75C239.934 165.75 246.834 163.15 252.234 157.95C257.634 152.65 260.334 145.6 260.334 136.8C260.334 128 256.934 121.2 250.134 116.4C243.334 111.5 235.134 109.05 225.534 109.05C221.234 109.05 219.084 109.7 219.084 111V164.1C219.084 165.2 223.234 165.75 231.534 165.75Z" fill="white"/>
</svg>
